# xmcd
#
# Track frame offsets:
#	150
#	12175
#	24517
#	35962
#	48752
#	60580
#	72495
#	84972
#	96612
#	108785
#	121340
#	134120
#	145370
#	155935
#	169640
#	183370
#	196035
#	207910
#
# Disc length: 2919 seconds
#
# Revision: 0
# Processed by: cddbd v1.5.1PL0 Copyright (c) Steve Scherf et al.
# Submitted via: EasyCDDAExtractor 7.5.2.1
#
DISCID=030b6512
DTITLE=Various Artist - Delta Blues - 1951
DYEAR=1951
DGENRE=Blues
TTITLE0=Delta Blues
TTITLE1=Mama don't allow me
TTITLE2=She left me a mule
TTITLE3=Bad heart Blues
TTITLE4=Juanita
TTITLE5=Friends and Pals
TTITLE6=Over hauling Blues
TTITLE7=Whistling Pines
TTITLE8=1951 Blues
TTITLE9=Dirty Disposition
TTITLE10=Bull Dog Blues
TTITLE11=Rosalee
TTITLE12=Everybody's fishing
TTITLE13=My own Boogle
TTITLE14=74 Blues
TTITLE15=Shady Lane Blues
TTITLE16=21 minutes to nine
TTITLE17=Vanity dresser boogie
EXTD=
EXTT0=
EXTT1=
EXTT2=
EXTT3=
EXTT4=
EXTT5=
EXTT6=
EXTT7=
EXTT8=
EXTT9=
EXTT10=
EXTT11=
EXTT12=
EXTT13=
EXTT14=
EXTT15=
EXTT16=
EXTT17=
PLAYORDER=
